<svg width="21" height="23" viewBox="0 0 21 23" fill="none" xmlns="http://www.w3.org/2000/svg">
<g id="noun-instagram-6874413 1">
<path id="Vector" d="M15.2728 2.98923H5.7273C4.61988 2.99071 3.55877 3.4278 2.77566 4.20569C1.99262 4.98358 1.55266 6.0378 1.55115 7.13795V16.6207C1.55264 17.7209 1.99262 18.775 2.77566 19.553C3.55869 20.3309 4.61988 20.7679 5.7273 20.7694H15.2728C16.3802 20.768 17.4413 20.3309 18.2244 19.553C19.0074 18.7751 19.4474 17.7209 19.4489 16.6207V7.13795C19.4474 6.0378 19.0074 4.98366 18.2244 4.20569C17.4414 3.4278 16.3802 2.99073 15.2728 2.98923ZM18.2557 16.6207C18.255 17.406 17.9403 18.1594 17.381 18.7151C16.8217 19.2707 16.0633 19.5833 15.2728 19.5841H5.7273C4.93682 19.5833 4.1784 19.2707 3.61909 18.7151C3.05979 18.1594 2.74509 17.406 2.74435 16.6207V7.13793C2.74509 6.35265 3.05979 5.59921 3.61909 5.04357C4.1784 4.48794 4.93681 4.17531 5.7273 4.17457H15.2728C16.0632 4.17531 16.8217 4.48794 17.381 5.04357C17.9403 5.59921 18.255 6.35263 18.2557 7.13793V16.6207ZM10.5 7.73061C9.39261 7.73061 8.32997 8.16771 7.54686 8.94558C6.76375 9.72345 6.32386 10.7792 6.32386 11.8794C6.32386 12.9795 6.76384 14.0352 7.54686 14.8131C8.32987 15.5911 9.39257 16.0281 10.5 16.0281C11.6075 16.0281 12.6701 15.591 13.4532 14.8131C14.2363 14.0353 14.6762 12.9795 14.6762 11.8794C14.6747 10.7792 14.2347 9.72506 13.4517 8.94709C12.6687 8.1692 11.6075 7.73211 10.5 7.73061ZM10.5 14.8427C9.70881 14.8427 8.95038 14.5308 8.39106 13.9744C7.83101 13.4188 7.51706 12.6654 7.51706 11.8793C7.51706 11.0932 7.83101 10.3398 8.39106 9.78417C8.95036 9.2278 9.70877 8.91591 10.5 8.91591C11.2913 8.91591 12.0497 9.2278 12.609 9.78417C13.1691 10.3398 13.483 11.0932 13.483 11.8793C13.4823 12.6646 13.1676 13.418 12.6083 13.9737C12.049 14.5293 11.2905 14.8419 10.5 14.8427ZM16.615 6.8415C16.615 7.26081 16.3607 7.63938 15.9707 7.79941C15.5807 7.96018 15.131 7.87128 14.8327 7.57494C14.5344 7.2786 14.445 6.83187 14.6068 6.44442C14.7679 6.05696 15.1489 5.80434 15.571 5.80434C16.1475 5.80434 16.615 6.26882 16.615 6.8415Z" fill="#003366"/>
</g>
</svg>
