<svg width="174" height="35" viewBox="0 0 174 35" fill="none" xmlns="http://www.w3.org/2000/svg">
    <path d="M24.4246 17.8796C24.3849 18.1393 24.1614 18.3253 23.9064 18.3253C23.8801 18.3253 23.8534 18.3234 23.8264 18.3193L12.0626 16.523C11.776 16.4792 11.5791 16.2113 11.6229 15.9247C11.6666 15.6379 11.9339 15.4409 12.2212 15.4849L23.985 17.2813C24.2714 17.325 24.4683 17.593 24.4246 17.8796ZM23.0707 18.9381L12.5996 17.3388C12.3142 17.2954 12.0448 17.4918 12.0013 17.7786C11.9575 18.0652 12.1544 18.3331 12.441 18.3769L22.9121 19.9758C22.9391 19.9799 22.9658 19.982 22.9921 19.982C23.2471 19.982 23.4706 19.796 23.5102 19.5363C23.554 19.2495 23.3571 18.9819 23.0707 18.9381ZM32.5887 26.0335C31.7397 26.0335 31.3412 25.852 30.8801 25.6414C30.38 25.4135 29.8133 25.1551 28.7363 25.1551C27.6597 25.1551 27.093 25.4135 26.5933 25.6414C26.1322 25.852 25.734 26.0335 24.8853 26.0335C24.0363 26.0335 23.6381 25.852 23.177 25.6414C22.6773 25.4135 22.1106 25.1551 21.0336 25.1551C19.9566 25.1551 19.3895 25.4135 18.8898 25.6418C18.4288 25.852 18.0306 26.0335 17.1819 26.0335C16.3325 26.0335 15.9343 25.852 15.4729 25.6414L15.3539 25.5874C15.0904 25.4685 14.779 25.5867 14.6598 25.851C14.5408 26.1152 14.6587 26.4259 14.9233 26.5451L15.0374 26.5968C15.5375 26.8251 16.1045 27.0835 17.1819 27.0835C18.2589 27.0835 18.8256 26.8251 19.3253 26.5971C19.7864 26.3866 20.1846 26.2051 21.0336 26.2051C21.8823 26.2051 22.2805 26.3866 22.7415 26.5968C23.2413 26.8251 23.8083 27.0835 24.8853 27.0835C25.9623 27.0835 26.529 26.8251 27.029 26.5968C27.4898 26.3866 27.8876 26.2051 28.7363 26.2051C29.5853 26.2051 29.9835 26.3866 30.4446 26.5968C30.9447 26.8251 31.5114 27.0835 32.5887 27.0835C32.8786 27.0835 33.1137 26.8483 33.1137 26.5585C33.1137 26.2686 32.8786 26.0335 32.5887 26.0335ZM18.2616 30.3958C17.4126 30.3958 17.0144 30.2143 16.5533 30.0041C16.0533 29.7758 15.4866 29.5174 14.4092 29.5174C13.3324 29.5174 12.7659 29.7758 12.266 30.0041C11.8051 30.2143 11.407 30.3958 10.5584 30.3958C9.70934 30.3958 9.31115 30.2143 8.85023 30.0038C8.35019 29.7758 7.78349 29.5174 6.70648 29.5174C5.62948 29.5174 5.06278 29.7758 4.56273 30.0041C4.10182 30.2143 3.70363 30.3958 2.85477 30.3958C2.56476 30.3958 2.32977 30.631 2.32977 30.9208C2.32977 31.2107 2.56476 31.4458 2.85477 31.4458C3.93178 31.4458 4.49848 31.1874 4.99852 30.9591C5.45944 30.7489 5.85763 30.5674 6.70648 30.5674C7.55534 30.5674 7.95353 30.7489 8.41444 30.9591C8.91449 31.1874 9.48119 31.4458 10.5584 31.4458C11.6352 31.4458 12.2019 31.1874 12.7018 30.9591C13.1627 30.7489 13.5607 30.5674 14.4092 30.5674C15.2582 30.5674 15.6568 30.7489 16.1179 30.9595C16.6179 31.1874 17.1846 31.4458 18.2616 31.4458C18.5515 31.4458 18.7866 31.2107 18.7866 30.9208C18.7866 30.631 18.5515 30.3958 18.2616 30.3958ZM34.1176 20.6037C34.2365 20.8679 34.1183 21.1786 33.8537 21.2975L33.7146 21.3608C33.6898 21.3721 33.6637 21.3836 33.6386 21.395C33.0687 21.6536 32.4076 21.9316 31.1976 21.9316C29.9336 21.9316 29.2678 21.6281 28.6803 21.3601C28.119 21.1044 27.634 20.8833 26.5984 20.8833C25.5634 20.8833 25.0791 21.1041 24.5185 21.3601C23.931 21.6281 23.2655 21.9316 22.0022 21.9316C20.739 21.9316 20.0731 21.6281 19.4859 21.3601C18.9247 21.1041 18.4404 20.8833 17.4051 20.8833C16.3701 20.8833 15.8858 21.1041 15.3252 21.3601C14.738 21.6281 14.0724 21.9316 12.8093 21.9316C11.5458 21.9316 10.8802 21.6281 10.2928 21.3601C9.7319 21.1041 9.2474 20.8833 8.21227 20.8833C7.17731 20.8833 6.69281 21.1041 6.13192 21.3601C5.54455 21.6281 4.8789 21.9316 3.61561 21.9316C2.40741 21.9316 1.74669 21.6541 1.17728 21.3958C1.15132 21.384 1.12441 21.3721 1.09879 21.3604L0.961903 21.2982C0.697353 21.1793 0.579433 20.8682 0.698378 20.604C0.817152 20.3395 1.12802 20.2216 1.39257 20.3405L1.53424 20.4048C1.81296 20.5319 2.07304 20.6501 2.39068 20.7372L2.67738 18.8592C2.7121 18.6324 2.8109 18.4328 2.9477 18.2679L3.27724 16.1099C3.37243 15.4863 3.60177 14.8793 3.94049 14.3544L5.85676 11.3855L3.77797 10.8679C3.54315 10.8095 3.34132 10.6547 3.22409 10.4431C3.10685 10.2315 3.08241 9.97842 3.15709 9.74839L3.6527 8.22227C3.78685 7.8087 4.21034 7.55423 4.63913 7.6313L6.89259 8.03445C7.32052 8.11102 7.6237 8.48204 7.61327 8.91663L7.60582 9.23064L9.44923 4.93248C9.85768 3.98006 10.8578 3.42413 11.8833 3.58033L27.86 6.02007C28.8847 6.17645 29.6742 7.00582 29.7798 8.03719L30.2564 12.6896L30.3431 12.3874C30.4627 11.9697 30.8623 11.7069 31.294 11.7606L33.5652 12.0482C33.9962 12.103 34.325 12.472 34.3302 12.9064C34.3302 12.9063 34.3302 12.9066 34.3302 12.9064L34.3479 14.5113C34.3503 14.7537 34.2512 14.988 34.0762 15.1546C33.9135 15.3096 33.6958 15.3959 33.4723 15.3959C33.4552 15.3959 33.4381 15.3956 33.4213 15.3945L31.2824 15.2683L32.2254 18.6736C32.3922 19.2755 32.4298 19.9232 32.3344 20.5473L32.301 20.7661C32.6745 20.6774 32.9667 20.5475 33.2795 20.4051L33.4237 20.3398C33.6879 20.2202 33.9986 20.3391 34.1176 20.6037ZM30.917 14.1948L33.2959 14.3353L33.2819 13.0707L31.3107 12.8211L30.917 14.1948ZM8.17589 10.5651L29.3141 13.793L28.7353 8.14417C28.6782 7.58892 28.2534 7.14219 27.7014 7.05811L11.7249 4.61836C11.1738 4.53223 10.6341 4.83353 10.4141 5.34639L8.17589 10.5651ZM6.52602 10.4701L6.56002 9.04156L4.60426 8.69173L4.21376 9.89434L6.52602 10.4701ZM4.07631 17.8334L8.25824 18.472L8.50331 16.8675C8.5151 16.7909 8.4758 16.7168 8.40573 16.6833L4.8025 14.9592C4.55553 15.3526 4.38617 15.8035 4.31527 16.2683L4.07631 17.8334ZM14.6534 20.5106L3.91486 18.8708C3.90597 18.8694 3.89726 18.8691 3.88854 18.8691C3.80343 18.8691 3.72858 18.9313 3.71542 19.0178L3.43164 20.8765C3.49287 20.8782 3.55014 20.8816 3.61561 20.8816C4.65075 20.8816 5.13524 20.6608 5.69613 20.4048C6.28351 20.1368 6.94916 19.8333 8.21227 19.8333C9.47555 19.8333 10.1412 20.1368 10.7286 20.4048C11.2895 20.6608 11.774 20.8816 12.8093 20.8816C13.6974 20.8816 14.18 20.7186 14.6534 20.5106ZM27.1186 18.5245L30.9421 17.973L30.1428 15.0864C30.1244 15.0199 30.0686 14.9704 30.001 14.9601L7.17235 11.4741C7.10519 11.463 7.03615 11.4941 6.99889 11.5522L5.3745 14.0689L8.85895 15.7362C9.34909 15.9706 9.62321 16.489 9.54135 17.0259L9.29628 18.6305L17.211 19.8392C17.2762 19.8374 17.3365 19.8333 17.4051 19.8333C18.2967 19.8333 18.8882 19.9852 19.367 20.1684L23.1745 20.7499C23.5154 20.6618 23.7896 20.5386 24.0828 20.4048C24.5752 20.1801 25.1275 19.9327 26.0362 19.8579L26.083 19.552C26.1646 19.015 26.5809 18.6021 27.1186 18.5245ZM31.2224 18.9934L27.2686 19.5636C27.1921 19.5749 27.1326 19.6337 27.1206 19.7106L27.099 19.852C28.0469 19.9201 28.6115 20.1748 29.1157 20.4048C29.6769 20.6604 30.162 20.8816 31.1976 20.8816C31.2061 20.8816 31.2131 20.8809 31.2215 20.8809L31.2967 20.3887C31.3678 19.9237 31.3408 19.4424 31.2224 18.9934Z" fill="#003366"/>
    <path d="M56.616 8.82V11.052H49.536V15.972H55.056V18.204H49.536V25.5H46.8V8.82H56.616ZM61.8876 7.74V25.5H59.1516V7.74H61.8876ZM71.2157 25.716C69.9677 25.716 68.8397 25.436 67.8317 24.876C66.8237 24.3 66.0317 23.5 65.4557 22.476C64.8797 21.436 64.5917 20.236 64.5917 18.876C64.5917 17.532 64.8877 16.34 65.4797 15.3C66.0717 14.26 66.8797 13.46 67.9037 12.9C68.9277 12.34 70.0717 12.06 71.3357 12.06C72.5997 12.06 73.7437 12.34 74.7677 12.9C75.7917 13.46 76.5997 14.26 77.1917 15.3C77.7837 16.34 78.0797 17.532 78.0797 18.876C78.0797 20.22 77.7757 21.412 77.1677 22.452C76.5597 23.492 75.7277 24.3 74.6717 24.876C73.6317 25.436 72.4797 25.716 71.2157 25.716ZM71.2157 23.34C71.9197 23.34 72.5757 23.172 73.1837 22.836C73.8077 22.5 74.3117 21.996 74.6957 21.324C75.0797 20.652 75.2717 19.836 75.2717 18.876C75.2717 17.916 75.0877 17.108 74.7197 16.452C74.3517 15.78 73.8637 15.276 73.2557 14.94C72.6477 14.604 71.9917 14.436 71.2877 14.436C70.5837 14.436 69.9277 14.604 69.3197 14.94C68.7277 15.276 68.2557 15.78 67.9037 16.452C67.5517 17.108 67.3757 17.916 67.3757 18.876C67.3757 20.3 67.7357 21.404 68.4557 22.188C69.1917 22.956 70.1117 23.34 71.2157 23.34ZM86.5204 25.716C85.2724 25.716 84.1444 25.436 83.1364 24.876C82.1284 24.3 81.3364 23.5 80.7604 22.476C80.1844 21.436 79.8964 20.236 79.8964 18.876C79.8964 17.532 80.1924 16.34 80.7844 15.3C81.3764 14.26 82.1844 13.46 83.2084 12.9C84.2324 12.34 85.3764 12.06 86.6404 12.06C87.9044 12.06 89.0484 12.34 90.0724 12.9C91.0964 13.46 91.9044 14.26 92.4964 15.3C93.0884 16.34 93.3844 17.532 93.3844 18.876C93.3844 20.22 93.0804 21.412 92.4724 22.452C91.8644 23.492 91.0324 24.3 89.9764 24.876C88.9364 25.436 87.7844 25.716 86.5204 25.716ZM86.5204 23.34C87.2244 23.34 87.8804 23.172 88.4884 22.836C89.1124 22.5 89.6164 21.996 90.0004 21.324C90.3844 20.652 90.5764 19.836 90.5764 18.876C90.5764 17.916 90.3924 17.108 90.0244 16.452C89.6564 15.78 89.1684 15.276 88.5604 14.94C87.9524 14.604 87.2964 14.436 86.5924 14.436C85.8884 14.436 85.2324 14.604 84.6244 14.94C84.0324 15.276 83.5604 15.78 83.2084 16.452C82.8564 17.108 82.6804 17.916 82.6804 18.876C82.6804 20.3 83.0404 21.404 83.7604 22.188C84.4964 22.956 85.4164 23.34 86.5204 23.34ZM95.1771 18.828C95.1771 17.5 95.4491 16.324 95.9931 15.3C96.5531 14.276 97.3051 13.484 98.2491 12.924C99.2091 12.348 100.273 12.06 101.441 12.06C102.305 12.06 103.153 12.252 103.985 12.636C104.833 13.004 105.505 13.5 106.001 14.124V7.74H108.761V25.5H106.001V23.508C105.553 24.148 104.929 24.676 104.129 25.092C103.345 25.508 102.441 25.716 101.417 25.716C100.265 25.716 99.2091 25.428 98.2491 24.852C97.3051 24.26 96.5531 23.444 95.9931 22.404C95.4491 21.348 95.1771 20.156 95.1771 18.828ZM106.001 18.876C106.001 17.964 105.809 17.172 105.425 16.5C105.057 15.828 104.569 15.316 103.961 14.964C103.353 14.612 102.697 14.436 101.993 14.436C101.289 14.436 100.633 14.612 100.025 14.964C99.4171 15.3 98.9211 15.804 98.5371 16.476C98.1691 17.132 97.9851 17.916 97.9851 18.828C97.9851 19.74 98.1691 20.54 98.5371 21.228C98.9211 21.916 99.4171 22.444 100.025 22.812C100.649 23.164 101.305 23.34 101.993 23.34C102.697 23.34 103.353 23.164 103.961 22.812C104.569 22.46 105.057 21.948 105.425 21.276C105.809 20.588 106.001 19.788 106.001 18.876ZM122.171 8.82V11.052H115.091V15.972H120.611V18.204H115.091V25.5H112.355V8.82H122.171ZM127.442 7.74V25.5H124.706V7.74H127.442ZM136.77 25.716C135.522 25.716 134.394 25.436 133.386 24.876C132.378 24.3 131.586 23.5 131.01 22.476C130.434 21.436 130.146 20.236 130.146 18.876C130.146 17.532 130.442 16.34 131.034 15.3C131.626 14.26 132.434 13.46 133.458 12.9C134.482 12.34 135.626 12.06 136.89 12.06C138.154 12.06 139.298 12.34 140.322 12.9C141.346 13.46 142.154 14.26 142.746 15.3C143.338 16.34 143.634 17.532 143.634 18.876C143.634 20.22 143.33 21.412 142.722 22.452C142.114 23.492 141.282 24.3 140.226 24.876C139.186 25.436 138.034 25.716 136.77 25.716ZM136.77 23.34C137.474 23.34 138.13 23.172 138.738 22.836C139.362 22.5 139.866 21.996 140.25 21.324C140.634 20.652 140.826 19.836 140.826 18.876C140.826 17.916 140.642 17.108 140.274 16.452C139.906 15.78 139.418 15.276 138.81 14.94C138.202 14.604 137.546 14.436 136.842 14.436C136.138 14.436 135.482 14.604 134.874 14.94C134.282 15.276 133.81 15.78 133.458 16.452C133.106 17.108 132.93 17.916 132.93 18.876C132.93 20.3 133.29 21.404 134.01 22.188C134.746 22.956 135.666 23.34 136.77 23.34ZM164.099 12.276L159.995 25.5H157.115L154.451 15.732L151.787 25.5H148.907L144.779 12.276H147.563L150.323 22.908L153.131 12.276H155.987L158.675 22.86L161.411 12.276H164.099Z" fill="#003366"/>
</svg>
