<svg width="21" height="23" viewBox="0 0 21 23" fill="none" xmlns="http://www.w3.org/2000/svg">
<g id="noun-twitter-6755467 1">
<path id="Vector" d="M12.2016 20.4194C12.3619 20.4194 12.492 20.5494 12.492 20.7097C12.492 20.87 12.3619 21 12.2016 21H2.99899C2.44935 21 1.94883 20.7747 1.58668 20.4118C1.22454 20.0496 1 19.5491 1 19.0002V5.0005C1 4.45008 1.22531 3.94959 1.58668 3.58819L1.60407 3.57232C1.96547 3.21925 2.45917 3.00075 2.99973 3.00075H3.81627C3.97655 3.00075 4.10659 3.13079 4.10659 3.29107C4.10659 3.45135 3.97655 3.58139 3.81627 3.58139H2.99973C2.61641 3.58139 2.26636 3.73563 2.00478 3.99117C1.74091 4.25579 1.58063 4.61037 1.58063 5.00049V19.0002C1.58063 19.3911 1.74016 19.7465 1.99796 20.0035C2.25426 20.2598 2.60961 20.4193 2.99973 20.4193H12.2024L12.2016 20.4194ZM10.2381 10.2604L13.9087 5.79677C13.9609 5.72117 14.0486 5.67127 14.1476 5.67127H15.783C15.848 5.67278 15.913 5.69395 15.9667 5.73856C16.0899 5.83987 16.1081 6.02284 16.006 6.14607L11.339 11.8209L15.6098 17.8708C15.702 18.0016 15.6703 18.1823 15.5395 18.2746C15.4888 18.3101 15.4306 18.3275 15.3732 18.3275L13.1505 18.3283C13.0461 18.3283 12.9546 18.2731 12.9032 18.1906L9.76195 13.7398L6.0913 18.2028C6.03914 18.2784 5.95143 18.3283 5.85239 18.3283H4.21706C4.15204 18.3268 4.08702 18.3057 4.03334 18.2611C3.9101 18.1597 3.89196 17.9768 3.99403 17.8535L8.66106 12.1795L4.39022 6.12877C4.29798 5.99797 4.32974 5.81727 4.46053 5.72505C4.51119 5.68951 4.5694 5.67212 4.62686 5.67212H6.84957C6.95391 5.67212 7.04539 5.72731 7.09679 5.80972L10.2389 10.2613L10.2381 10.2604ZM7.79763 3.58065C7.63735 3.58065 7.50731 3.4506 7.50731 3.29032C7.50731 3.13004 7.63735 3 7.79763 3H16.9995C17.5499 3 18.0504 3.22531 18.4126 3.58668L18.4284 3.60407C18.7815 3.96547 19 4.45917 19 4.99973V18.9995C19 19.5484 18.7747 20.0489 18.4118 20.4125C18.0489 20.7754 17.5484 21 16.9995 21H16.1837C16.0234 21 15.8934 20.8699 15.8934 20.7097C15.8934 20.5494 16.0234 20.4193 16.1837 20.4193H16.9995C17.3904 20.4193 17.7457 20.2598 18.002 20.0035C18.2598 19.7465 18.4193 19.3911 18.4193 19.0002V5.00051C18.4193 4.61643 18.2651 4.26713 18.0096 4.00555C17.7449 3.74169 17.3904 3.58141 17.0002 3.58141H7.79837L7.79763 3.58065Z" fill="#003366"/>
</g>
</svg>
